<?xml version="1.0" encoding="UTF-8" standalone="no"?>
<svg
   width="128"
   height="128"
   version="1.1"
   viewBox="0 0 128 128"
   id="svg4"
   sodipodi:docname="favicon.svg"
   inkscape:version="1.3 (0e150ed, 2023-07-21)"
   xmlns:inkscape="http://www.inkscape.org/namespaces/inkscape"
   xmlns:sodipodi="http://sodipodi.sourceforge.net/DTD/sodipodi-0.dtd"
   xmlns="http://www.w3.org/2000/svg"
   xmlns:svg="http://www.w3.org/2000/svg">
  <sodipodi:namedview
     id="namedview4"
     pagecolor="#ffffff"
     bordercolor="#000000"
     borderopacity="0.25"
     inkscape:showpageshadow="2"
     inkscape:pageopacity="0.0"
     inkscape:pagecheckerboard="0"
     inkscape:deskcolor="#d1d1d1"
     inkscape:zoom="1"
     inkscape:cx="42"
     inkscape:cy="28"
     inkscape:window-width="1680"
     inkscape:window-height="997"
     inkscape:window-x="0"
     inkscape:window-y="25"
     inkscape:window-maximized="1"
     inkscape:current-layer="svg4" />
  <defs
     id="defs2">
    <linearGradient
       id="linearGradient4543"
       x1="44.158"
       x2="109"
       y1="58.875"
       y2="111.88"
       gradientTransform="matrix(1.28 0 0 1.28 -17.92 -23.37)"
       gradientUnits="userSpaceOnUse">
      <stop
         stop-opacity=".2"
         offset="0"
         id="stop1" />
      <stop
         stop-opacity="0"
         offset="1"
         id="stop2" />
    </linearGradient>
    <filter
       id="filter4443"
       x="-0.10993482"
       y="-0.085201058"
       width="1.2198696"
       height="1.1704021"
       color-interpolation-filters="sRGB">
      <feGaussianBlur
         stdDeviation="2.5366544"
         id="feGaussianBlur2" />
    </filter>
  </defs>
  <g
     stroke-width="1.28"
     id="g2"
     inkscape:export-filename="512.png"
     inkscape:export-xdpi="384"
     inkscape:export-ydpi="384">
    <rect
       fill="#109d59"
       y="-.00064087"
       width="128"
       height="128"
       rx="10.272"
       ry="10.272"
       id="rect2" />
  </g>
  <path
     d="m71.68 17.269-39.478 82.638 28.092 28.092h57.432c5.6909 0 10.273-4.5816 10.273-10.273v-44.137z"
     fill="url(#linearGradient4543)"
     fill-rule="evenodd"
     opacity=".504"
     stroke-width="1.28"
     id="path2" />
  <path
     transform="matrix(1.28,0,0,1.28,-616.96,-70.864)"
     d="m528 70.864v17.144c0 12.646-21.702 20.949-21.702 34.845 0 10.918 4.3627 19.509 18.585 19.46l18.025 4e-3c14.433 0.0439 18.768-8.5075 18.768-19.463 0-13.641-21.675-22.079-21.675-34.847 0-6.257 0.0738-17.144 0.0738-17.144"
     fill-opacity=".96789"
     filter="url(#filter4443)"
     opacity=".125"
     id="path3" />
  <path
     d="m56.32 17.282v21.944c0 16.187-27.779 26.815-27.779 44.602 0 13.975 5.5843 24.972 23.789 24.909l23.072 5e-3c18.474 0.0562 24.023-10.89 24.023-24.913 0-17.46-27.744-28.261-27.744-44.604 0-8.009 0.09446-21.944 0.09446-21.944"
     fill="#fff"
     fill-opacity=".96789"
     stroke-width="1.28"
     id="path4" />
  <circle
     style="opacity:0.525;fill:#f9f9f9;stroke:none;stroke-width:0.942452;stroke-linejoin:round;stroke-dasharray:0.0184074, 1.27011"
     id="path5"
     cx="55.748226"
     cy="4.1895461"
     r="1.2992172" />
  <circle
     style="opacity:0.525;fill:#f9f9f9;stroke:none;stroke-width:0.942452;stroke-linejoin:round;stroke-dasharray:0.0184074, 1.27011"
     id="circle5"
     cx="52.637978"
     cy="5.9449034"
     r="1.2992172" />
  <circle
     style="opacity:0.525;fill:#f9f9f9;stroke:none;stroke-width:0.942452;stroke-linejoin:round;stroke-dasharray:0.0184074, 1.27011"
     id="circle6"
     cx="51.693092"
     cy="9.2913723"
     r="1.2992172" />
  <circle
     style="opacity:0.525;fill:#f9f9f9;stroke:none;stroke-width:0.942452;stroke-linejoin:round;stroke-dasharray:0.0184074, 1.27011"
     id="circle7"
     cx="53.897823"
     cy="12.165399"
     r="1.2992172" />
  <circle
     style="opacity:0.525;fill:#f9f9f9;stroke:none;stroke-width:0.942452;stroke-linejoin:round;stroke-dasharray:0.0184074, 1.27011"
     id="circle8"
     cx="57.598625"
     cy="12.165399"
     r="1.2992172" />
  <circle
     style="opacity:0.525;fill:#f9f9f9;stroke:none;stroke-width:0.942452;stroke-linejoin:round;stroke-dasharray:0.0184074, 1.27011"
     id="circle9"
     cx="59.803356"
     cy="9.055151"
     r="1.2992172" />
  <circle
     style="opacity:0.525;fill:#f9f9f9;stroke:none;stroke-width:0.942452;stroke-linejoin:round;stroke-dasharray:0.0184074, 1.27011"
     id="circle10"
     cx="58.976582"
     cy="5.7480526"
     r="1.2992172" />
</svg>
