<svg width="128" height="128" version="1.1" viewBox="0 0 128 128" xmlns="http://www.w3.org/2000/svg">

  <style>
  .underlay{
    fill:SelectedItem;
    filter:brightness(0.6) saturate(5);
  }
  </style>
 <defs>
  <linearGradient id="linearGradient4543" x1="44.158" x2="109" y1="58.875" y2="111.88" gradientTransform="matrix(1.28 0 0 1.28 -17.92 -23.37)" gradientUnits="userSpaceOnUse">
   <stop stop-opacity=".2" offset="0"/>
   <stop stop-opacity="0" offset="1"/>
  </linearGradient>
  <filter id="filter4443" x="-.10993" y="-.085201" width="1.2199" height="1.1704" color-interpolation-filters="sRGB">
   <feGaussianBlur stdDeviation="2.5366544"/>
  </filter>
 </defs>
 <g stroke-width="1.28">
  <rect class="underlay" y="-.00064087" width="128" height="128" rx="10.272" ry="10.272" />
 </g>
 <path d="m71.68 17.269-39.478 82.638 28.092 28.092h57.432c5.6909 0 10.273-4.5816 10.273-10.273v-44.137z" fill="url(#linearGradient4543)" fill-rule="evenodd" opacity=".504" stroke-width="1.28"/>
 <path transform="matrix(1.28,0,0,1.28,-616.96,-70.864)" d="m528 70.864v17.144c0 12.646-21.702 20.949-21.702 34.845 0 10.918 4.3627 19.509 18.585 19.46l18.025 4e-3c14.433 0.0439 18.768-8.5075 18.768-19.463 0-13.641-21.675-22.079-21.675-34.847 0-6.257 0.0738-17.144 0.0738-17.144" fill-opacity=".96789" filter="url(#filter4443)" opacity=".125"/>
 <path d="m56.32 17.282v21.944c0 16.187-27.779 26.815-27.779 44.602 0 13.975 5.5843 24.972 23.789 24.909l23.072 5e-3c18.474 0.0562 24.023-10.89 24.023-24.913 0-17.46-27.744-28.261-27.744-44.604 0-8.009 0.09446-21.944 0.09446-21.944" fill="#fff" fill-opacity=".96789" stroke-width="1.28"/>
 <circle transform="rotate(-.55702)" cx="55.259" cy="8.9834" r="3.753" fill="none" opacity=".525" stroke="#f9f9f9" stroke-dasharray="0.05187528, 3.57939801" stroke-linecap="round" stroke-width="2.656"/>
</svg>
