<svg width="128" height="128" version="1.1" viewBox="0 0 128 128" xmlns="http://www.w3.org/2000/svg" xmlns:xlink="http://www.w3.org/1999/xlink">
 <defs>
  <linearGradient id="linearGradient4543" x1="44.158" x2="109" y1="58.875" y2="111.88" gradientTransform="translate(468 37.105)" gradientUnits="userSpaceOnUse">
   <stop stop-opacity=".2" offset="0"/>
   <stop stop-opacity="0" offset="1"/>
  </linearGradient>
  <filter id="filter4443" x="-.10993" y="-.085201" width="1.2199" height="1.1704" color-interpolation-filters="sRGB">
   <feGaussianBlur stdDeviation="2.5366544"/>
  </filter>
 </defs>
 <g transform="translate(-326 29)">
  <g transform="matrix(1.28 0 0 1.28 -290.96 -99.864)">
   <rect x="482" y="55.362" width="100" height="100" rx="8.0252" ry="8.0252" fill="#109d59"/>
   <path d="m538 68.854-30.842 64.561 21.947 21.947h44.869c4.446 0 8.0254-3.5794 8.0254-8.0254v-34.482z" fill="url(#linearGradient4543)" fill-rule="evenodd" opacity=".504"/>
   <path d="m528 70.864v17.144c0 12.646-21.702 20.949-21.702 34.845 0 10.918 4.3627 19.509 18.585 19.46l18.025 4e-3c14.433 0.0439 18.768-8.5075 18.768-19.463 0-13.641-21.675-22.079-21.675-34.847 0-6.257 0.0738-17.144 0.0738-17.144" fill-opacity=".96789" filter="url(#filter4443)" opacity=".125"/>
   <path d="m526 68.864v17.144c0 12.646-21.702 20.949-21.702 34.845 0 10.918 4.3627 19.509 18.585 19.46l18.025 4e-3c14.433 0.0439 18.768-8.5075 18.768-19.463 0-13.641-21.675-22.079-21.675-34.847 0-6.257 0.0738-17.144 0.0738-17.144" fill="#fff" fill-opacity=".96789"/>
   <circle transform="rotate(-.55702)" cx="524.61" cy="67.064" r="2.932" fill="none" stroke="#7bd0a9" stroke-dasharray="0.0518827, 3.57991" stroke-linecap="round" stroke-width="2.0753"/>
  </g>
 </g>
</svg>
